Simulation
nRows=15
nColumns=15
endheader
time  TH_x TH_y TH_z SC_y  SC_z  SC_x  AC_y  AC_z  AC_x  GH_y  GH_z  GH_yy  EL_x  PS_y
0.0  0.000000  0.000000  0.000000  -30.234025741012115  0.10401603214631376  -0.007740470894954537  53.313128582247096  6.1302795261027985  -6.0802567933922536  27.712487333175034  2.1287808565897333  1.1487262973910757  22.882796191257945  0.000000
0.03099999999999998  0.000000  0.000000  0.000000  -30.21507162550587  0.021437486075013504  0.5593102090470965  53.20500021340495  5.762788555556862  -6.604329438698082  27.734707299547928  2.2383136125533905  1.1747890074061242  22.802720794220292  0.000000
0.06199999999999996  0.000000  0.000000  0.000000  -30.178573472259334  -0.07044740456995308  1.089185179263168  53.12103256957409  5.395552175764344  -7.095254072817122  27.7481372588361  2.3551135637736  1.2284335992745894  22.728706404437833  0.000000
0.09299999999999994  0.000000  0.000000  0.000000  -30.1442358506919  -0.1670860318371856  1.5770064719366765  53.05461558979085  5.038686584234313  -7.546280108380073  27.728679035092316  2.5014567546924114  1.3078902261213872  22.64615746406606  0.000000
0.12399999999999992  0.000000  0.000000  0.000000  -30.116119343602684  -0.2621200436236275  2.0207885472811706  53.00282560042739  4.699314800130659  -7.953867969536779  27.656564776539955  2.6977006667368033  1.4127010035657557  22.545990578881952  0.000000
0.1549999999999999  0.000000  0.000000  0.000000  -30.104239157069056  -0.351722321883373  2.4203554555720066  52.96302485050065  4.383256638813775  -8.316363795594867  27.509559341845318  2.964836300063506  1.5438112989110986  22.42231624846742  0.000000
0.1859999999999999  0.000000  0.000000  0.000000  -30.111068148412883  -0.43224752733645344  2.776951059748571  52.93284748044772  4.09523281594005  -8.633485500922045  27.26983235562896  3.317822766197812  1.7010706609534019  22.274101474804752  0.000000
0.21699999999999986  0.000000  0.000000  0.000000  -30.13842695502106  -0.5011136213123523  3.092868267097441  52.91176803151594  3.8386755144334748  -8.906031434901731  26.924157120036355  3.7668894637643042  1.8836967117289969  22.105158059514075  0.000000
0.24799999999999983  0.000000  0.000000  0.000000  -30.185490549401113  -0.5567674136721017  3.370938740098946  52.89985411873283  3.616002269457186  -9.13511201748312  26.46390260857119  4.316145904183374  2.0906890032812075  21.92272007084423  0.000000
0.2789999999999998  0.000000  0.000000  0.000000  -30.249673870002876  -0.5989100988753854  3.6141984321874436  52.899276064270325  3.4284632013261898  -9.321821424570723  25.88624754137158  4.964940362618117  2.3205727314262012  21.737139749405024  0.000000
0.3099999999999998  0.000000  0.000000  0.000000  -30.328139922156822  -0.6286426921524064  3.825312198119462  52.91347201444202  3.2761994476186547  -9.466662891728559  25.191801128985706  5.709323660597099  2.572153533151728  21.560677986500757  0.000000
0.34099999999999975  0.000000  0.000000  0.000000  -30.418591669196147  -0.6484923730703257  4.006182665586184  52.947364682393975  3.1580272298471908  -9.569443264563215  24.383920751442343  6.544339696519924  2.8444533243475463  21.40615164988155  0.000000
0.3719999999999998  0.000000  0.000000  0.000000  -30.519937811233916  -0.6619881844057406  4.157886822632671  53.00633751372686  3.0716855533485403  -9.62939702233906  23.468061050799353  7.465638538533461  3.1367139536265856  21.285785910213  0.000000
0.40299999999999975  0.000000  0.000000  0.000000  -30.631080879739226  -0.6726218172881747  4.280866088555029  53.09498812210466  3.0142060548109653  -9.645782032393138  22.453155490922114  8.470305616757067  3.448039642676581  21.208888811960797  0.000000
0.4339999999999997  0.000000  0.000000  0.000000  -30.749405065140706  -0.6824553127516568  4.375611240350362  53.21544449495798  2.982732640590705  -9.618898516934953  21.35421133251709  9.556638222657478  3.7768509982518244  21.18003471865061  0.000000
